<?xml version="1.0" encoding="UTF-8"?><svg id="Layer_1" xmlns="http://www.w3.org/2000/svg" viewBox="0 0 1593 1029"><defs><style>.cls-1{fill-rule:evenodd;stroke-width:0px;}</style></defs><path class="cls-1" d="m628.29,100.02c.95-3.72,3.11-3.97,5.44-4.75,35-11.92,74.05-20.39,119.07-22.72,43.29-2.16,85.46,10.11,98.24,41.56,29.12,71.81-110.43,199-161.32,232.18.78,1.82,2.07,3.28,1.55,6.22-1.04,6.4-9.16,17.54-12.53,23.51-35.42,123.73-223.28,207.12-355.13,154.67-2.24-.86-3.28-2.16-4.67-4.67-36.63,11.06-78.11,22.56-121.06,26.61-46.74,4.41-95.22,1.82-121.31-22.29-14.69-13.48-20.91-31.8-16.85-54.44,3.62-20.48,13.21-36.55,22.72-51.33,14.6-22.81,31.88-41.73,50.89-60.31,6.14-6.05,12.27-12.79,20.31-16.42-20.31-96.86,15.46-181.37,60.31-235.29,23.76-28.6,52.8-51.24,86.58-68.95,34.82-18.23,73.71-29.81,122.95-32.15,43.98-1.99,89.09,10.63,120.54,25.49,34.47,16.24,61.61,37.76,84.24,63.07h0ZM370.19,26.75h0c-3.8,11.67-10.8,19.96-16.85,29.38-3.89,6.22-8.47,12.01-12.87,17.63-8.99,11.32-19.97,20.74-30.16,30.93-14.69,14.69-35.34,27.04-55.22,36.38-7.09,3.37-14.77,7.95-23.07,5.88,15.64-3.2,28.6-12.79,41.05-21.09,25.23-16.93,46.66-36.81,64.63-60.31,7.95-10.37,15.21-22.12,22.3-32.49.77-1.21,2.68-2.59,1.98-4.32-44.15,12.1-82.17,32.84-112.76,60.66-30.15,27.39-55.73,61.26-72.06,101.44-16.68,41.05-26.18,94.96-17.63,148.02,7,43.46,23.76,78.2,43.9,108.1,2.77,4.15,6.74,8.38,7.43,13.65-5.1-.95-7.78-6.22-10.54-9.76-21.34-27.13-36.72-60.14-45.88-99.11-27.39,26.78-55.57,54.09-74.4,90.47-6.22,12.18-12.53,26.1-13.65,41.56-3.46,48.22,44.41,59.62,86.49,61.44,38.54,1.64,78.89-4.92,111.21-12.18,154.24-34.3,546.09-256.11,557.25-400.5-3.11-40.26-20.83-50.11-67.74-50.11s-84.16,11.75-122.96,18.75c-.77,1.73,3.63,4.93,5.1,7.09,2.85-3.2,7.43-4.41,11.32-5.53,13.56-3.72,28.08-6.14,43.46-7.43,51.33-6.48,75.95,9.5,83.81,34.82,5.7,18.06-2.33,43.21-18.58,68.78-28.17,44.41-97.9,104.12-168.32,150.26-80.87,52.97-164.43,90.81-216.62,113.54-85.9,37.41-169.54,56.25-227.34,37.85-25.49-8.12-50.98-24.8-48.48-58.67,1.47-20.74,12.01-36.72,22.3-49.77,8.03-10.2,17.37-19.1,27.04-27.05,3.11-2.59,6.91-5.79,11.32-6.22-2.07,4.93-6.74,7.61-10.2,10.98-3.54,3.46-6.91,7.17-10.2,10.97-12.62,14.35-22.98,28.95-26.96,51.41-2.42,13.39.87,24.71,7.43,33.7,87.27,119.33,567.7-154.15,635.1-282.9,26.01-49.69,8.12-78.55-47.35-79.84-21.52-.52-42.25,3.89-65.41,7.43,11.4,15.12,23.59,34.39,33.27,55.99,4.32,9.59,9.08,20.65,12.53,32.49,1.73,5.7,2.51,11.06,4.32,18.06,1.13,4.41,5.62,14.86-2.33,14.86-5.27,0-5.62-6.83-6.31-11.41-.87-5.96-2.42-10.54-3.55-14.43-2.76-9.94-5.01-19.01-8.98-26.7-15.21,37.84-39.49,69.12-64.2,97.9-12.36,14.43-26.61,27.31-40.7,40.35-14.16,13.05-30.24,24.37-47.78,33.27,6.75-6.91,15.64-10.54,23.08-16.42,7.34-5.79,14.08-12.53,20.73-19.18,26.61-26.61,51.67-54.7,73.62-85.37,5.79-8.03,10.98-15.9,15.3-24.62,5.53-11.15,10.89-24.54,16.41-35.25-17.11-36.38-41.39-68.26-70.42-92.46-1.9-1.55-4.32-3.97-5.88-3.54-1.21,7.43-5.62,12.79-9.07,18.41-6.31,10.37-14.17,20.65-21.86,29.03-21.34,23.16-42.34,47.52-68.17,67.31-5.79,4.49-11.66,10.11-19.19,14.52-10.02,5.88-34.82,12.62-36.38-3.89-.95-9.76,8.21-17.37,12.87-22.72,6.14-7,13.48-10.63,16.07-19.96-6.65-2.08-12.44,3.03-17.97,5.88-11.14,5.53-22.03,12.44-34.13,16.76-5.97,2.24-14.26,4.84-21.86,3.54-6.48-1.04-15.04-7.34-17.63-13.31-2.33-5.27-.61-11.23,1.9-15.29,6.31-10.02,21.17-15.81,32.49-23.41,11.06-7.43,21.69-16.68,30.93-25.06,10.54-9.59,19.87-18.75,27.48-28.6,6.4-8.38,11.67-16.59,17.2-25.06,1.64-2.59,3.2-5.7,5.88-7.43-18.75,39.75-45.71,69.73-80.27,93.93-5.1,3.63-12.1,6.22-18.41,10.63-5.1,3.55-13.48,9.42-12.87,16.42.43,5.7,8.55,11.24,14.08,12.1,7.95,1.3,16.24-2.24,22.73-5.1,14.78-6.39,21.43-12.1,36.72-18.75,7.26-3.11,18.32-4.58,19.27,3.11.43,4.15-3.55,8.73-6.31,11.75-6.48,6.91-10.98,11.41-17.2,18.84-2.59,3.03-6.74,7.52-5.87,12.1,1.81,9.85,21.25,2.42,25.4,0,7.69-4.4,14.34-10.45,20.39-15.3,13.83-11.06,25.41-22.98,37.59-34.04,6.13-5.62,11.41-12.36,17.2-18.41,17.8-18.49,33.78-37.42,45.45-61.87-38.28-27.74-89.35-49.6-151.56-49.69-16.85,39.06-45.02,68.52-75.17,93.93-10.2,8.64-21.34,16.94-33.7,23.16,4.23-5.01,9.68-8.56,14.52-12.53,35.08-29.03,66.45-61.43,86.93-104.55-.35,0-.43-.35-.78-.43-19.36.78-37.15,3.02-53.65,6.65h0Zm249.45,362.57h0c-102.13,57.63-179.9,97.29-294.04,135.14,127.54,38.36,285.84-43.64,348.82-156.66-47,56.69-84.07,84.59-154.24,117.86-15.2,7.17-29.9,17.11-47.35,19.61,91.76-40.01,137.73-80.19,203.14-150,.26,0,.52-.35,0-.35-18.23,10.89-36.72,23.33-56.34,34.39h0Z"/></svg>